<svg xmlns="http://www.w3.org/2000/svg" width="148" height="158" viewBox="0 0 148 158" fill="none"><path d="M1 46.8421V1H38V29.4624V57.9248L33.5388 64.4627C32.8615 65.4552 31.9052 66.2247 30.7906 66.6738C28.7575 67.4932 26.4405 67.1541 24.7275 65.7864L1 46.8421Z" fill="white" stroke="white"></path><path d="M147 46.8421V1H110V29.4624V57.9248L114.461 64.4627C115.139 65.4552 116.095 66.2247 117.209 66.6738C119.243 67.4932 121.559 67.1541 123.273 65.7864L147 46.8421Z" fill="white" stroke="white"></path><path d="M147 103.158V149H110V120.538V92.0752L114.461 85.5373C115.139 84.5448 116.095 83.7753 117.209 83.3262C119.243 82.5068 121.559 82.8459 123.273 84.2136L147 103.158Z" fill="white" stroke="white"></path><path d="M1 103.158V149H38V120.538V92.0752L33.5388 85.5373C32.8615 84.5448 31.9052 83.7753 30.7906 83.3262C28.7575 82.5068 26.4405 82.8459 24.7275 84.2136L1 103.158Z" fill="white" stroke="white"></path><path d="M58 64.5V1.5H91V64.5C91.9747 68.3988 94.1639 71.8866 97.2512 74.4593L98.5 75.5L96.6949 77.4555C93.9425 80.4372 91.9842 84.0633 91 88V148.5C85.4256 149.484 80.1943 151.873 75.8011 155.443L74.5 156.5L73.895 155.976C69.386 152.068 63.8856 149.481 58 148.5V88C56.6817 84.0452 54.5377 80.4159 51.7102 77.3527L50 75.5L51.1413 74.5489C54.3174 71.9021 56.6926 68.4222 58 64.5Z" fill="white" stroke="white"></path><path d="M20 76.5L12 69C11.3547 71.9038 9.69192 74.4811 7.31218 76.2659L7 76.5C9.55288 78.0956 11.3347 80.6734 11.9251 83.6254L12 84L20 76.5Z" fill="white" stroke="white"></path><path d="M129 76.5L137 69C137.645 71.9038 139.308 74.4811 141.688 76.2659L142 76.5C139.447 78.0956 137.665 80.6734 137.075 83.6254L137 84L129 76.5Z" fill="white" stroke="white"></path></svg>