<svg xmlns="http://www.w3.org/2000/svg" width="263" height="94" viewBox="0 0 263 94" fill="none"><path d="M5.46447 8.03553L6.03553 7.46447C6.97322 6.52678 8.24499 6 9.57107 6H10.5644C11.8098 6 13.0103 6.46475 13.9311 7.30329L38.8666 30.0125C39.907 30.96 40.5 32.302 40.5 33.7092V61.2908C40.5 62.698 39.907 64.04 38.8666 64.9875L13.9311 87.6967C13.0103 88.5352 11.8098 89 10.5644 89H10.1033C8.47171 89 6.94276 88.2039 6.00712 86.8673L4.90384 85.2912C4.31555 84.4508 4 83.4498 4 82.4239V11.5711C4 10.245 4.52678 8.97322 5.46447 8.03553Z" stroke="white" stroke-width="8"></path><path d="M61 5C61 2.79086 59.2091 1 57 1C54.7909 1 53 2.79086 53 5H61ZM53 5V93H61V5H53Z" fill="white"></path><path d="M169 5C169 2.79086 167.209 1 165 1C162.791 1 161 2.79086 161 5H169ZM161 5V93H169V5H161Z" fill="white"></path><path d="M79 93V49.0057M116 93V49.0057M79 49.0057V12.1031C79 10.7985 79.51 9.54545 80.421 8.61157L84.0532 4.88849C84.6075 4.32036 85.3676 4 86.1613 4V4C86.9456 4 87.6975 4.31287 88.2504 4.86924L114.254 31.0394C114.431 31.2174 114.594 31.4085 114.743 31.6111L115.035 32.0109C115.662 32.8677 116 33.9018 116 34.9634V49.0057M79 49.0057H116" stroke="white" stroke-width="8"></path><path d="M141 5V93" stroke="white" stroke-width="8"></path><path d="M131 6H151" stroke="white" stroke-width="8" stroke-linecap="round"></path><path d="M186.5 89V12.3694C186.5 10.8697 187.173 9.44925 188.334 8.49961L188.869 8.06161C190.695 6.56772 193.317 6.55331 195.159 8.02705L220.123 27.9988C221.31 28.9476 222 30.3842 222 31.9031V89" stroke="white" stroke-width="8" stroke-linecap="square"></path><path d="M255.957 14.5877C257.662 15.9921 260.183 15.7481 261.588 14.0428C262.992 12.3375 262.748 9.81664 261.043 8.41228L255.957 14.5877ZM239.5 89.5V93.5H247.5V89.5H239.5ZM253.072 7.03018L250.53 10.1179L253.072 7.03018ZM261.043 8.41228L255.615 3.94246L250.53 10.1179L255.957 14.5877L261.043 8.41228ZM244.406 3.75622L243.013 4.82839L247.89 11.1694L249.284 10.0972L244.406 3.75622ZM239.5 11.962V89.5H247.5V11.962H239.5ZM243.013 4.82839C240.798 6.53206 239.5 9.16779 239.5 11.962H247.5C247.5 11.6515 247.644 11.3587 247.89 11.1694L243.013 4.82839ZM255.615 3.94246C252.378 1.27694 247.73 1.1997 244.406 3.75622L249.284 10.0972C249.653 9.81315 250.17 9.82173 250.53 10.1179L255.615 3.94246Z" fill="white"></path><path d="M235 49H254.5" stroke="white" stroke-width="8" stroke-linecap="round"></path></svg>